<?xml version="1.0" encoding="UTF-8" standalone="no"?>
<!-- Created with Inkscape (http://www.inkscape.org/) -->

<svg
   width="48.608673mm"
   height="48.608669mm"
   viewBox="0 0 48.608673 48.608669"
   version="1.1"
   id="svg5"
   xml:space="preserve"
   inkscape:version="1.2.2 (732a01da63, 2022-12-09)"
   sodipodi:docname="TTrac.svg"
   xmlns:inkscape="http://www.inkscape.org/namespaces/inkscape"
   xmlns:sodipodi="http://sodipodi.sourceforge.net/DTD/sodipodi-0.dtd"
   xmlns="http://www.w3.org/2000/svg"
   xmlns:svg="http://www.w3.org/2000/svg"><sodipodi:namedview
     id="namedview7"
     pagecolor="#505050"
     bordercolor="#eeeeee"
     borderopacity="1"
     inkscape:showpageshadow="0"
     inkscape:pageopacity="0"
     inkscape:pagecheckerboard="0"
     inkscape:deskcolor="#505050"
     inkscape:document-units="mm"
     showgrid="false"
     inkscape:zoom="2.0510461"
     inkscape:cx="-303.50366"
     inkscape:cy="217.20623"
     inkscape:window-width="2400"
     inkscape:window-height="1271"
     inkscape:window-x="2391"
     inkscape:window-y="-9"
     inkscape:window-maximized="1"
     inkscape:current-layer="layer1" /><defs
     id="defs2"><filter
       inkscape:collect="always"
       style="color-interpolation-filters:sRGB"
       id="filter968"
       x="-0.2816371"
       y="-0.2816371"
       width="1.5632741"
       height="1.5632741"><feGaussianBlur
         inkscape:collect="always"
         stdDeviation="2.4674778"
         id="feGaussianBlur970" /></filter></defs><g
     inkscape:label="Capa 1"
     inkscape:groupmode="layer"
     id="layer1"
     transform="translate(114.0233,-33.035815)"><g
       id="g978"><circle
         style="mix-blend-mode:normal;fill:#333333;stroke-width:0.264583;filter:url(#filter968)"
         id="path412"
         cx="-90.750954"
         cy="57.08215"
         r="10.513435"
         transform="matrix(1.4787813,0,0,1.4787813,44.481846,-27.071862)" /><g
         id="g5543"
         inkscape:export-filename="icon.svg"
         inkscape:export-xdpi="96"
         inkscape:export-ydpi="96"
         transform="translate(-0.56782074,0.12740657)"><ellipse
           style="fill:#485fc7;fill-opacity:1;stroke-width:0.252259"
           id="path500"
           cx="-89.119118"
           cy="56.877045"
           rx="16.189402"
           ry="16.157152" /><g
           id="g3572"
           transform="matrix(0.95355665,0,0,0.95355665,-68.98473,-23.344411)"
           style="fill:#ffffff"><g
             aria-label="T"
             transform="scale(0.99381123,1.0062273)"
             id="text113"
             style="font-size:25.5194px;stroke-width:2.12661" /><path
             id="path5527"
             style="font-size:25.5194px;font-family:Bauman;-inkscape-font-specification:Bauman;stroke-width:2.12661"
             d="m -21.148631,64.49182 c -3.513427,0 -5.759043,0.509696 -8.827013,2.004071 -4.101232,1.997663 -8.223416,6.557766 -9.663759,10.69018 l -0.507792,1.456718 h -1.334782 c -1.047267,0 -1.481646,0.146322 -2.015993,0.680668 -0.662078,0.662037 -0.680668,0.79645 -0.680668,4.807493 0,4.05665 0.01158,4.137408 0.702346,4.786357 0.548262,0.51506 1.088641,0.685003 2.458752,0.772255 l 1.755865,0.111638 0.642191,1.565646 c 2.268526,5.531402 7.593674,10.055734 13.206378,11.220194 1.109024,0.23008 1.867497,0.58057 2.378547,1.09904 1.5487,1.5712 4.383158,0.62424 4.383158,-1.46431 0,-1.15554 -0.4056,-1.84494 -1.381931,-2.349819 -1.099933,-0.568796 -1.424453,-0.533285 -2.634338,0.287769 -0.979654,0.66481 -1.130507,0.68811 -2.539501,0.39561 -4.354415,-0.903984 -8.854938,-4.541816 -11.058696,-8.939736 -4.564873,-9.109801 -0.0136,-20.098924 9.752094,-23.547012 1.051139,-0.371138 2.641425,-0.624833 4.532732,-0.72294 2.453349,-0.12726 3.262426,-0.0554 5.12344,0.455225 4.172059,1.14473 7.2754137,3.349314 9.6903135,6.883639 2.5376254,3.713949 3.5375401,8.768005 2.5573843,12.924031 -0.2451724,1.03957 -0.4454694,1.9565 -0.4454694,2.03767 0,0.08106 1.2383506,0.104461 2.7524804,0.05203 2.46108052,-0.08526 2.82882125,-0.166572 3.4683746,-0.76792 0.706702,-0.664459 0.7158942,-0.72348 0.7158942,-4.799363 0,-4.011043 -0.019171,-4.145456 -0.6812104,-4.807493 -0.53434004,-0.53435 -0.96872198,-0.680672 -2.01599275,-0.680672 H -2.1506088 l -0.5077918,-1.456718 c -1.4403471,-4.132414 -5.5625287,-8.692517 -9.6637584,-10.69018 -3.067971,-1.494375 -5.313045,-2.004071 -8.826472,-2.004071 z m -11.784344,10.988787 v 3.774567 h 4.159339 c 0.583314,-1.669089 1.800475,-3.029896 3.347524,-3.774567 z m 10.271266,0 c -2.815119,0 -4.970536,1.874446 -5.706018,4.570667 -0.07609,0.385174 -0.126923,0.770228 -0.152284,1.155402 v 12.274253 h 3.601149 V 81.848868 c 0,-1.412307 1.19177,-2.593694 2.586648,-2.593694 h 1.953129 v -3.774567 z m 5.282768,0 v 11.632061 c 0,1.412306 -1.191769,2.593694 -2.586649,2.593694 h -1.953128 v 3.774567 h 2.282624 c 2.815119,0 4.971078,-1.874448 5.70656,-4.570668 0.07609,-0.385174 0.12638,-0.770228 0.151741,-1.155402 V 75.480607 Z m 3.854773,14.225755 c -0.583313,1.669089 -1.800475,3.029897 -3.347523,3.774567 h 7.506863 v -3.774567 z" /></g></g></g></g></svg>
