<?xml version="1.0" encoding="UTF-8" standalone="no"?>
<!-- Created with Inkscape (http://www.inkscape.org/) -->

<svg
   version="1.1"
   id="svg132"
   width="500.05493"
   height="549.46313"
   viewBox="0 0 500.05493 549.46313"
   sodipodi:docname="logo.png"
   xml:space="preserve"
   xmlns:inkscape="http://www.inkscape.org/namespaces/inkscape"
   xmlns:sodipodi="http://sodipodi.sourceforge.net/DTD/sodipodi-0.dtd"
   xmlns:xlink="http://www.w3.org/1999/xlink"
   xmlns="http://www.w3.org/2000/svg"
   xmlns:svg="http://www.w3.org/2000/svg"><defs
     id="defs136"><linearGradient
       inkscape:collect="always"
       id="linearGradient6177"><stop
         style="stop-color:#000080;stop-opacity:1"
         offset="0"
         id="stop6173" /><stop
         style="stop-color:#0064ff;stop-opacity:1"
         offset="1"
         id="stop6175" /></linearGradient><linearGradient
       inkscape:collect="always"
       id="linearGradient6157"><stop
         style="stop-color:#ffb31b;stop-opacity:1"
         offset="0"
         id="stop6153" /><stop
         style="stop-color:#ffeb00;stop-opacity:1"
         offset="1"
         id="stop6155" /></linearGradient><linearGradient
       inkscape:collect="always"
       id="linearGradient6062"><stop
         style="stop-color:#1eae0f;stop-opacity:1;"
         offset="0"
         id="stop6058" /><stop
         style="stop-color:#00ff00;stop-opacity:1"
         offset="1"
         id="stop6060" /></linearGradient><radialGradient
       inkscape:collect="always"
       xlink:href="#linearGradient6157"
       id="radialGradient6159-3"
       cx="-1462.4463"
       cy="-182.41437"
       fx="-1462.4463"
       fy="-182.41437"
       r="240.8994"
       gradientTransform="matrix(-0.76088502,-1.36207,0.96084298,-0.53674978,-4008.6721,-2830.3301)"
       gradientUnits="userSpaceOnUse" /><radialGradient
       inkscape:collect="always"
       xlink:href="#linearGradient6177"
       id="radialGradient6179-5"
       cx="-1476.1639"
       cy="-337.53058"
       fx="-1476.1639"
       fy="-337.53058"
       r="199.00391"
       gradientTransform="matrix(-0.01567419,-2.5026556,1.3346436,-0.00835687,-2604.9126,-4467.8229)"
       gradientUnits="userSpaceOnUse" /><radialGradient
       inkscape:collect="always"
       xlink:href="#linearGradient6062"
       id="radialGradient6064-9"
       cx="-1342.6073"
       cy="-166.15442"
       fx="-1342.6073"
       fy="-166.15442"
       r="175.87985"
       gradientTransform="matrix(1.8000369,-2.4067092,1.0686127,0.79923904,-376.33871,-3905.8224)"
       gradientUnits="userSpaceOnUse" /><filter
       inkscape:collect="always"
       style="color-interpolation-filters:sRGB"
       id="filter7192"
       x="-0.01894372"
       y="-0.017181717"
       width="1.0378875"
       height="1.0343634"><feGaussianBlur
         inkscape:collect="always"
         stdDeviation="3.8029509"
         id="feGaussianBlur7194" /></filter></defs><sodipodi:namedview
     id="namedview134"
     pagecolor="#505050"
     bordercolor="#eeeeee"
     borderopacity="1"
     inkscape:showpageshadow="0"
     inkscape:pageopacity="0"
     inkscape:pagecheckerboard="0"
     inkscape:deskcolor="#505050"
     showgrid="false" /><g
     inkscape:groupmode="layer"
     inkscape:label="Image"
     id="g138"
     transform="translate(1639.213,587.50403)"><g
       id="g12276"
       inkscape:export-filename="..\Documents\Diseño\Curvy\Tecoop.svg"
       inkscape:export-xdpi="96"
       inkscape:export-ydpi="96"><g
         id="g7110"
         style="opacity:0.499244;fill:#1a1a1a;filter:url(#filter7192)"
         inkscape:export-filename="..\Documents\Diseño\Tecoop\Tecoop.svg"
         inkscape:export-xdpi="96"
         inkscape:export-ydpi="96"><path
           id="path4938"
           style="fill:#1a1a1a;fill-opacity:1"
           d="m -1391.8086,-577.43555 -6.8672,2.13282 -6.8691,2.13281 -4.7442,3.50586 -4.7421,3.5039 -3.4727,5.2461 -3.4707,5.24609 -1.6543,6.48438 -1.6523,6.48437 0.6191,5.92969 0.6211,5.92969 2.3476,5.13086 2.3496,5.13281 3.2657,3.71875 3.2656,3.71875 3.0254,2.15429 3.0273,2.15626 5.6075,2.36523 h -0.01 l 5.6094,2.36523 8.58,-0.33398 8.5801,-0.33594 5.6582,-2.76953 5.6602,-2.76758 4.4414,-4.4414 4.4414,-4.44336 2.8184,-5.73828 2.8203,-5.74024 v -10 -10 l -3.1563,-6.03711 -3.1543,-6.03711 -4.6679,-4.30273 -4.668,-4.30274 -5.3281,-2.43945 -5.3262,-2.4375 -6.4785,-0.60547 z m 98.7617,60.86719 -0.875,0.95117 -0.875,0.94922 -4.2734,13 -4.2754,13 -1.0254,0.66797 -1.0254,0.66602 -16.0742,3.05859 -16.0762,3.05859 -10.5,1.27344 -10.5,1.27539 h -31.5 -31.5 l -11,-1.32422 -11,-1.32422 -15,-2.48047 -15,-2.48242 -4.1777,-1.04492 -4.1777,-1.04492 -4.2403,-11.44531 -4.2422,-11.44532 -0.666,-0.41211 -0.666,-0.41015 -0.066,5.09375 -0.066,5.09375 -0.6699,5.36328 -0.67,5.36328 h -0.8359 -0.8379 l -12.2422,-3.55859 -12.2422,-3.55664 -9.5976,-3.3125 -9.5996,-3.31446 -3.875,-1.6289 -3.8731,-1.63086 8.4825,9.25195 8.4804,9.25 8.8926,11.11524 8.8926,11.11718 4.8867,7.09766 4.8887,7.09766 -3.2285,9.28515 -3.2305,9.28711 -5.3809,11.05469 -5.3808,11.05469 -5.6426,8.44531 -5.6426,8.44531 -7.0058,8.26367 -7.004,8.26368 -7.6308,6.31835 -7.6289,6.31836 -6,4.03321 -6,4.0332 -8,4.01953 -8,4.01953 -8.9492,3.15625 -8.9473,3.15821 -8.5527,1.85156 -8.5508,1.85156 -3.7696,0.65625 -3.7714,0.6543 11.7714,8.58008 11.7696,8.57812 14,10.80273 14,10.80079 16.9844,14.11523 16.9863,14.11524 18.0644,16.375 18.0645,16.375 18.0215,18.4375 18.0215,18.4375 12.8066,14.89257 12.8066,14.89258 9.875,13.13867 9.8731,13.13672 8.5449,13.36328 8.5449,13.36133 7.4297,15 7.4297,15.000001 4.4512,13.5 4.4511,13.5 1.2676,7.75 1.2657,7.75 h 0.8046 0.8047 v -4.509765 -4.511719 l 2.0508,-9.238281 2.0508,-9.240235 3.4082,-10.210937 3.4082,-10.208985 5.4297,-12.009769 5.4316,-12.01172 6.6973,-11.70117 6.6973,-11.70117 8.0449,-12.07812 8.0469,-12.07813 8.6113,-11.5 8.6094,-11.5 7.4375,-9 7.4355,-9 11.5703,-12.99023 11.5703,-12.98828 15,-15.38086 15,-15.37891 17.5,-16.27344 17.5,-16.27343 16.4297,-14.13282 16.4277,-14.13281 14.7012,-11.72461 14.7012,-11.72461 -12.6289,-2.10547 -12.6309,-2.10351 -7.5,-2.25977 -7.5,-2.25976 -9.7734,-4.29883 -9.7754,-4.29883 -10.2246,-6.78906 -10.2266,-6.78907 -11.0449,-11.04687 -11.0469,-11.04883 -7.3457,-11 -7.3457,-11 -5.3867,-10.95508 -5.3848,-10.95507 0.5606,-1.4629 0.5605,-1.46289 9.0918,-15.58203 9.0918,-15.58203 11.3438,-17.25 11.3437,-17.25 h -0.4902 -0.4902 l -8.0664,4.05469 -8.0665,4.05664 -10.6621,4.32226 -10.6621,4.32032 -8.3125,2.72656 -8.3125,2.72656 -0.6172,-0.61523 -0.6152,-0.61719 -1.2676,-7.73633 -1.2676,-7.73828 -0.053,-3.94922 z m 93.502,42.98242 -5.4336,1.95899 -5.4336,1.95898 -5.3809,4.9082 -5.3789,4.90821 -2.6133,5.09179 -2.6152,5.0918 -0.418,8.5 -0.4199,8.5 2.0762,5.5 2.0762,5.5 3.0976,3.75391 3.0957,3.75586 4.1797,2.875 4.1777,2.875 4.4942,1.63086 v 0 l 4.4942,1.63281 8,-0.32031 8,-0.31836 6.3261,-3.37305 6.3262,-3.37109 3.418,-3.99414 3.4199,-3.9961 2.2539,-4.57422 2.2559,-4.57617 -0.012,-10 -0.01,-10 -2.6563,-5 -2.6543,-5 -4.3339,-4.19922 -4.334,-4.19922 -5.9473,-2.71484 -5.9453,-2.71289 -7.0547,-0.0449 z m -396,8.16602 -5.9688,2.2793 -5.9707,2.27929 -1.3164,1.32227 c -10.6256,6.72381 -17.6858,18.57369 -17.6855,32.07812 -4e-4,20.95464 16.9868,37.94188 37.9414,37.94141 20.9539,-6.1e-4 37.9398,-16.98754 37.9394,-37.94141 3e-4,-15.14132 -8.8725,-28.20671 -21.6992,-34.29297 l -0.7187,-0.49414 -4.2618,-1.56836 -4.2597,-1.56836 -7,-0.0176 z" /><path
           id="path4934"
           style="fill:#1a1a1a;fill-opacity:1"
           d="m -1389.1855,-578.37695 c -20.9546,-4.7e-4 -37.942,16.98676 -37.9415,37.9414 -4e-4,20.95464 16.9869,37.94188 37.9415,37.94141 20.9538,-6.1e-4 37.9399,-16.98754 37.9394,-37.94141 10e-5,-3.41409 -0.4572,-6.72003 -1.3027,-9.86718 v -0.36524 l -0.2285,-0.43555 c -4.6101,-15.75805 -19.16,-27.27293 -36.4082,-27.27343 z m 96.1406,61.80859 -0.877,0.95117 -0.875,0.94922 -4.2734,13 -4.2735,13 -1.0273,0.66797 -1.0254,0.66602 -16.0742,3.05859 -16.0742,3.05859 -10.5,1.27344 -10.5,1.27539 h -31.5 -31.5 l -11,-1.31641 -11,-1.3164 -17,-2.91602 -17,-2.91601 -2.25,-0.63477 -2.2481,-0.63281 2.6016,6.86523 2.6035,6.86719 6.4961,18 6.4961,18 6.457,18.5 6.4551,18.5 9.0156,28 9.0176,28 8.3242,29 8.3242,29 5.5645,22 5.5625,22 4.498,20.5 4.5,20.5 3.0196,16.5 3.0195,16.5 2.0723,14 2.0742,14 1.9434,18.5 1.9433,18.5 0.6699,20.974611 0.6719,20.974609 2.3242,-9.246094 2.3262,-9.24414 3.6406,-9.720704 3.6407,-9.718752 4.7246,-10.0957 4.7265,-10.09375 6.2852,-10.91602 6.2832,-10.91406 8.0039,-12 8.0039,-12 7.0098,-9.5 7.0097,-9.5 8.586,-10.5 8.5839,-10.5 12.0098,-13.5 12.0078,-13.5 15,-15.36914 15.002,-15.36914 17.5,-16.27344 17.5,-16.27343 16.4277,-14.13282 16.4297,-14.13281 14.7012,-11.72461 14.7011,-11.72461 -8.6914,-1.18164 -8.6933,-1.17969 -8.1856,-2.08984 -8.1855,-2.08984 -7.252,-2.58985 -7.2519,-2.59179 -8.916,-4.57422 -8.9141,-4.57618 -8.0859,-5.93945 -8.084,-5.93945 -10.0528,-10.16211 -10.0507,-10.16406 -7.3418,-10.96094 -7.3399,-10.96094 -5.3867,-10.95508 -5.3848,-10.95507 0.5606,-1.4629 0.5625,-1.46289 9.0898,-15.58203 9.0918,-15.58203 11.3438,-17.25 11.3437,-17.25 h -0.4902 -0.4902 l -8.0664,4.05469 -8.0665,4.05664 -10.6601,4.32226 -10.6621,4.32032 -8.3145,2.72656 -8.3125,2.72656 -0.6152,-0.61523 -0.6152,-0.61719 -1.2696,-7.73633 -1.2676,-7.73828 -0.053,-3.94922 z m -253.2481,8.39844 8.4746,9.25195 8.4766,9.25 8.4238,10.5 8.4239,10.5 4.9746,7.21875 4.9746,7.2168 0.6406,0.0332 0.6406,0.0312 2.2285,-8.25 2.2305,-8.25 1.7988,-9.99805 1.7989,-9.99804 -0.17,-0.11914 -0.1679,-0.11914 -11.5,-3.2461 -11.5,-3.24804 -11,-3.75 -11,-3.74805 -3.875,-1.63867 z m 346.7481,34.58398 -5.4336,1.95899 -5.4336,1.95898 -5.3809,4.9082 -5.3789,4.90821 -2.6133,5.09179 -2.6152,5.0918 -0.418,8.5 -0.4199,8.5 2.0762,5.5 2.0762,5.5 3.0976,3.75391 3.0957,3.75586 4.1797,2.875 4.1777,2.875 4.4942,1.63086 v 0 l 4.4942,1.63281 8,-0.32031 8,-0.31836 6.3261,-3.37305 6.3262,-3.37109 3.418,-3.99414 3.4199,-3.9961 2.2539,-4.57422 2.2559,-4.57617 -0.012,-10 -0.01,-10 -2.6563,-5 -2.6543,-5 -4.3339,-4.19922 -4.334,-4.19922 -5.9473,-2.71484 -5.9453,-2.71289 -7.0547,-0.0449 z m -182.5,411.417971 v 0.5 0.5 h 0.5 0.5 v -0.5 -0.5 h -0.5 z m -3,8 v 0.5 0.5 h 0.5 0.5 v -0.5 -0.5 h -0.5 z m 1,6 v 0.5 0.5 h 0.5 0.5 v -0.5 -0.5 h -0.5 z" /><path
           id="path4930"
           style="fill:#1a1a1a;fill-opacity:1"
           d="m -1293.0449,-516.56836 -0.9199,0.95117 -0.9219,0.94922 -13.0899,40.8457 -13.0898,40.84766 -6.541,22.15234 -6.541,22.1543 -5.8848,21.5 -5.8867,21.5 -5.4981,22 -5.4961,22 -3.5019,15.5 -3.5,15.5 -2.9981,14.5 -3,14.5 -3.5566,20.5 -3.5586,20.5 -2.5117,18 -2.5117,18 -1.4903,15.51758 -1.4882,15.51758 1.4785,14.48242 1.4804,14.48242 0.6797,20.974611 0.6797,20.974609 2.3242,-9.246094 2.3262,-9.24414 3.6406,-9.720704 3.6407,-9.718752 4.7246,-10.0957 4.7265,-10.09375 6.2852,-10.91602 6.2832,-10.91406 8.0039,-12 8.0039,-12 7.0098,-9.5 7.0097,-9.5 8.586,-10.5 8.5839,-10.5 12.0098,-13.5 12.0078,-13.5 15,-15.36914 15.002,-15.36914 17.5,-16.27344 17.5,-16.27343 16.4277,-14.13282 16.4297,-14.13281 14.7012,-11.72461 14.7011,-11.72461 c -12.1872,-1.34571 -22.2808,-3.61133 -33.7558,-6.54101 -21.7299,-7.6829 -43.6984,-21.896 -58.5879,-36.40625 l -10.084,-10.19532 -7.6094,-11.42968 -7.6074,-11.42774 -6.4492,-13.5 -6.4492,-13.5 -3.1367,-9.43164 -3.1387,-9.43359 -2.3926,-9.56641 -2.3926,-9.56836 -1.5781,-10.11914 -1.5781,-10.11914 v -3.33203 z m -188,31.40039 v 0.5 0.5 h 0.5 0.5 v -0.5 -0.5 h -0.5 z m 2,5 v 0.5 0.5 h 0.5 0.5 v -0.5 -0.5 h -0.5 z m -17,2 v 0.5 0.5 h 0.5 0.5 v -0.5 -0.5 h -0.5 z m 18,1 v 0.5 0.5 h 0.5 0.5 v -0.5 -0.5 h -0.5 z m 286.2031,1.79102 c -20.9546,-4.7e-4 -37.9418,16.98676 -37.9414,37.9414 -4e-4,20.95464 16.9868,37.94188 37.9414,37.94141 20.9539,-6.1e-4 37.94,-16.98754 37.9395,-37.94141 5e-4,-20.95387 -16.9856,-37.94079 -37.9395,-37.9414 z m -305.2031,2.20898 v 0.5 0.5 h 0.5 0.5 v -0.5 -0.5 h -0.5 z m -1,4 v 0.5 0.5 h 0.5 0.5 v -0.5 -0.5 h -0.5 z m 23,0 v 0.5 0.5 h 0.5 0.5 v -0.5 -0.5 h -0.5 z m 1,3 v 0.5 0.5 h 0.5 0.5 v -0.5 -0.5 h -0.5 z m -25,1 v 0.5 0.5 h 0.5 0.5 v -0.5 -0.5 h -0.5 z m -1,4 v 0.5 0.5 h 0.5 0.5 v -0.5 -0.5 h -0.5 z m 28,0 v 0.5 0.5 h 0.5 0.5 v -0.5 -0.5 h -0.5 z m 1,3 v 0.5 0.5 h 0.5 0.5 v -0.5 -0.5 h -0.5 z m 1,3 v 0.5 0.5 h 0.5 0.5 v -0.5 -0.5 h -0.5 z m 3,8 v 0.5 0.5 h 0.5 0.5 v -0.5 -0.5 h -0.5 z m 1,3 v 0.5 0.5 h 0.5 0.5 v -0.5 -0.5 h -0.5 z m 1,3 v 0.5 0.5 h 0.5 0.5 v -0.5 -0.5 h -0.5 z m 3,8 v 0.5 0.5 h 0.5 0.5 v -0.5 -0.5 h -0.5 z m 1,3 v 0.5 0.5 h 0.5 0.5 v -0.5 -0.5 h -0.5 z m 1,3 v 0.5 0.5 h 0.5 0.5 v -0.5 -0.5 h -0.5 z m 1,3 v 0.5 0.5 h 0.5 0.5 v -0.5 -0.5 h -0.5 z m 1,3 v 0.5 0.5 h 0.5 0.5 v -0.5 -0.5 h -0.5 z m 6,17 v 0.5 0.5 h 0.5 0.5 v -0.5 -0.5 h -0.5 z m 1,3 v 0.5 0.5 h 0.5 0.5 v -0.5 -0.5 h -0.5 z m 1,3 v 0.5 0.5 h 0.5 0.5 v -0.5 -0.5 h -0.5 z m 1,3 v 0.5 0.5 h 0.5 0.5 v -0.5 -0.5 h -0.5 z m 1,3 v 0.5 0.5 h 0.5 0.5 v -0.5 -0.5 h -0.5 z m 1,3 v 0.5 0.5 h 0.5 0.5 v -0.5 -0.5 h -0.5 z m 5,16 v 0.5 0.5 h 0.5 0.5 v -0.5 -0.5 h -0.5 z m 1,3 v 0.5 0.5 h 0.5 0.5 v -0.5 -0.5 h -0.5 z m 1,3 v 0.5 0.5 h 0.5 0.5 v -0.5 -0.5 h -0.5 z m 1,3 v 0.5 0.5 h 0.5 0.5 v -0.5 -0.5 h -0.5 z m 1,3 v 0.5 0.5 h 0.5 0.5 v -0.5 -0.5 h -0.5 z m 3,10 v 0.5 0.5 h 0.5 0.5 v -0.5 -0.5 h -0.5 z m 1,3 v 0.5 0.5 h 0.5 0.5 v -0.5 -0.5 h -0.5 z m 3,10 v 0.5 0.5 h 0.5 0.5 v -0.5 -0.5 h -0.5 z m 1,3 v 0.5 0.5 h 0.5 0.5 v -0.5 -0.5 h -0.5 z m 1,4 v 0.5 0.5 h 0.5 0.5 v -0.5 -0.5 h -0.5 z m 1,3 v 0.5 0.5 h 0.5 0.5 v -0.5 -0.5 h -0.5 z m 2,7 v 0.5 0.5 h 0.5 0.5 v -0.5 -0.5 h -0.5 z m 1,3 v 0.5 0.5 h 0.5 0.5 v -0.5 -0.5 h -0.5 z m 1,4 v 0.5 0.5 h 0.5 0.5 v -0.5 -0.5 h -0.5 z m 1,3 v 0.5 0.5 h 0.5 0.5 v -0.5 -0.5 h -0.5 z m 1,4 v 0.5 0.5 h 0.5 0.5 v -0.5 -0.5 h -0.5 z m 1,3 v 0.5 0.5 h 0.5 0.5 v -0.5 -0.5 h -0.5 z m 1,4 v 0.5 0.5 h 0.5 0.5 v -0.5 -0.5 h -0.5 z m 1,4 v 0.5 0.5 h 0.5 0.5 v -0.5 -0.5 h -0.5 z m 1,3 v 0.5 0.5 h 0.5 0.5 v -0.5 -0.5 h -0.5 z m 1,4 v 0.5 0.5 h 0.5 0.5 v -0.5 -0.5 h -0.5 z m 1,4 v 0.5 0.5 h 0.5 0.5 v -0.5 -0.5 h -0.5 z m 2,7 v 0.5 0.5 h 0.5 0.5 v -0.5 -0.5 h -0.5 z m 1,4 v 0.5 0.5 h 0.5 0.5 v -0.5 -0.5 h -0.5 z m 1,4 v 0.5 0.5 h 0.5 0.5 v -0.5 -0.5 h -0.5 z m 1,4 v 0.5 0.5 h 0.5 0.5 v -0.5 -0.5 h -0.5 z m 1,4 v 0.5 0.5 h 0.5 0.5 v -0.5 -0.5 h -0.5 z m 1,4 v 0.5 0.5 h 0.5 0.5 v -0.5 -0.5 h -0.5 z m 1,4 v 0.5 0.5 h 0.5 0.5 v -0.5 -0.5 h -0.5 z m 1,4 v 0.5 0.5 h 0.5 0.5 v -0.5 -0.5 h -0.5 z m 1,4 v 0.5 0.5 h 0.5 0.5 v -0.5 -0.5 h -0.5 z m 1,4 v 0.5 0.5 h 0.5 0.5 v -0.5 -0.5 h -0.5 z m 1,5 v 0.5 0.5 h 0.5 0.5 v -0.5 -0.5 h -0.5 z m 1,4 v 0.5 0.5 h 0.5 0.5 v -0.5 -0.5 h -0.5 z m 1,5 v 0.5 0.5 h 0.5 0.5 v -0.5 -0.5 h -0.5 z m 1,4 v 0.5 0.5 h 0.5 0.5 v -0.5 -0.5 h -0.5 z m 1,5 v 0.5 0.5 h 0.5 0.5 v -0.5 -0.5 h -0.5 z m 1,4 v 0.5 0.5 h 0.5 0.5 v -0.5 -0.5 h -0.5 z m 1,5 v 0.5 0.5 h 0.5 0.5 v -0.5 -0.5 h -0.5 z m 1,5 v 0.5 0.5 h 0.5 0.5 v -0.5 -0.5 h -0.5 z m 1,5 v 0.5 0.5 h 0.5 0.5 v -0.5 -0.5 h -0.5 z m 1,5 v 0.5 0.5 h 0.5 0.5 v -0.5 -0.5 h -0.5 z m 2,11 v 0.5 0.5 h 0.5 0.5 v -0.5 -0.5 h -0.5 z m 1,4.66602 v 1.33398 1.33399 l 0.666,-0.66797 0.666,-0.66602 -0.666,-0.66601 z m 1,6.33398 v 0.5 0.5 h 0.5 0.5 v -0.5 -0.5 h -0.5 z m 1,6 v 0.5 0.5 h 0.5 0.5 v -0.5 -0.5 h -0.5 z m 1,5.66602 v 1.33398 1.33399 l 0.666,-0.66797 0.666,-0.66602 -0.666,-0.66601 z m 1,7 v 1.33398 1.33399 l 0.666,-0.66797 0.666,-0.66602 -0.666,-0.66601 z m 1,8.33398 v 0.5 0.5 h 0.5 0.5 v -0.5 -0.5 h -0.5 z m 5,84.000001 v 0.5 0.5 h 0.5 0.5 v -0.5 -0.5 h -0.5 z m -3,8 v 0.5 0.5 h 0.5 0.5 v -0.5 -0.5 h -0.5 z m 1,6 v 0.5 0.5 h 0.5 0.5 v -0.5 -0.5 h -0.5 z"
           sodipodi:nodetypes="ccccccccccccccccccccccccccccccccccccccccccccccccccccccccccccccccccccccccccccccccccccccccccccccccccccscscsccccccccccccccccccccccccccccccccccccccccccccccccccccccccccccccccccccccccccccccccccccccccccccccccccccccccccccccccccccccccccccccccccccccccccccccccccccccccccccccccccccccccccccccccccccccccccccccccccccccccccccccccccccccccccccccccccccccccccccccccccccccccccccccccccccccccccccccccccccccccccccccccccccccccccccccccccccccccccccccccccccccccccccccccccccccccccccccccccccccccccccccccccccccccccccccccccccccccccccccccccccccccccccccccccccccccccccccccccccccccccccccccccccccccccccccccccccccccccccccccccccccccccccccccccccccccccccccccccccccccccccccccccccccccccccccccccccccccccccccccccccccccccccccccccccccccccccccccccccccccccccccccccccccccccccccccccccccccccccccccccccccccccccccccccccccccccccc" /></g><path
         id="path4938-7"
         style="fill:url(#radialGradient6159-3);fill-opacity:1"
         d="m -1391.809,-577.43556 -6.8672,2.13282 -6.8691,2.13281 -4.7442,3.50586 -4.7421,3.5039 -3.4727,5.2461 -3.4707,5.24609 -1.6543,6.48438 -1.6523,6.48437 0.6191,5.92969 0.6211,5.92969 2.3476,5.13086 2.3496,5.13281 3.2657,3.71875 3.2656,3.71875 3.0254,2.15429 3.0273,2.15626 5.6075,2.36523 h -0.01 l 5.6094,2.36523 8.58,-0.33398 8.5801,-0.33594 5.6582,-2.76953 5.6602,-2.76758 4.4414,-4.4414 4.4414,-4.44336 2.8184,-5.73828 2.8203,-5.74024 v -10 -10 l -3.1563,-6.03711 -3.1543,-6.03711 -4.6679,-4.30273 -4.668,-4.30274 -5.3281,-2.43945 -5.3262,-2.4375 -6.4785,-0.60547 z m 98.7617,60.86719 -0.875,0.95117 -0.875,0.94922 -4.2734,13 -4.2754,13 -1.0254,0.66797 -1.0254,0.66602 -16.0742,3.05859 -16.0762,3.05859 -10.5,1.27344 -10.5,1.27539 h -31.5 -31.5 l -11,-1.32422 -11,-1.32422 -15,-2.48047 -15,-2.48242 -4.1777,-1.04492 -4.1777,-1.04492 -4.2403,-11.44531 -4.2422,-11.44532 -0.666,-0.41211 -0.666,-0.41015 -0.066,5.09375 -0.066,5.09375 -0.6699,5.36328 -0.67,5.36328 h -0.8359 -0.8379 l -12.2422,-3.55859 -12.2422,-3.55664 -9.5976,-3.3125 -9.5996,-3.31446 -3.875,-1.6289 -3.8731,-1.63086 8.4825,9.25195 8.4804,9.25 8.8926,11.11524 8.8926,11.11718 4.8867,7.09766 4.8887,7.09766 -3.2285,9.28515 -3.2305,9.28711 -5.3809,11.05469 -5.3808,11.05469 -5.6426,8.44531 -5.6426,8.44531 -7.0058,8.26367 -7.004,8.26368 -7.6308,6.31835 -7.6289,6.31836 -6,4.03321 -6,4.0332 -8,4.01953 -8,4.01953 -8.9492,3.15625 -8.9473,3.15821 -8.5527,1.85156 -8.5508,1.85156 -3.7696,0.65625 -3.7714,0.6543 11.7714,8.58008 11.7696,8.57812 14,10.80273 14,10.80079 16.9844,14.11523 16.9863,14.11524 18.0644,16.375 18.0645,16.375 18.0215,18.4375 18.0215,18.4375 12.8066,14.89257 12.8066,14.89258 9.875,13.13867 9.8731,13.13672 8.5449,13.36328 8.5449,13.36133 7.4297,15 7.4297,14.999999 4.4512,13.5 4.4511,13.5 1.2676,7.75 1.2657,7.75 h 0.8046 0.8047 v -4.509765 -4.511719 l 2.0508,-9.238281 2.0508,-9.240235 3.4082,-10.210937 3.4082,-10.208985 5.4297,-12.009767 5.4316,-12.01172 6.6973,-11.70117 6.6973,-11.70117 8.0449,-12.07812 8.0469,-12.07813 8.6113,-11.5 8.6094,-11.5 7.4375,-9 7.4355,-9 11.5703,-12.99023 11.5703,-12.98828 15,-15.38086 15,-15.37891 17.5,-16.27344 17.5,-16.27343 16.4297,-14.13282 16.4277,-14.13281 14.7012,-11.72461 14.7012,-11.72461 -12.6289,-2.10547 -12.6309,-2.10351 -7.5,-2.25977 -7.5,-2.25976 -9.7734,-4.29883 -9.7754,-4.29883 -10.2246,-6.78906 -10.2266,-6.78907 -11.0449,-11.04687 -11.0469,-11.04883 -7.3457,-11 -7.3457,-11 -5.3867,-10.95508 -5.3848,-10.95507 0.5606,-1.4629 0.5605,-1.46289 9.0918,-15.58203 9.0918,-15.58203 11.3438,-17.25 11.3437,-17.25 h -0.4902 -0.4902 l -8.0664,4.05469 -8.0665,4.05664 -10.6621,4.32226 -10.6621,4.32032 -8.3125,2.72656 -8.3125,2.72656 -0.6172,-0.61523 -0.6152,-0.61719 -1.2676,-7.73633 -1.2676,-7.73828 -0.053,-3.94922 z m 93.502,42.98242 -5.4336,1.95899 -5.4336,1.95898 -5.3809,4.9082 -5.3789,4.90821 -2.6133,5.09179 -2.6152,5.0918 -0.418,8.5 -0.4199,8.5 2.0762,5.5 2.0762,5.5 3.0976,3.75391 3.0957,3.75586 4.1797,2.875 4.1777,2.875 4.4942,1.63086 v 0 l 4.4942,1.63281 8,-0.32031 8,-0.31836 6.3261,-3.37305 6.3262,-3.37109 3.418,-3.99414 3.4199,-3.9961 2.2539,-4.57422 2.2559,-4.57617 -0.012,-10 -0.01,-10 -2.6563,-5 -2.6543,-5 -4.3339,-4.19922 -4.334,-4.19922 -5.9473,-2.71484 -5.9453,-2.71289 -7.0547,-0.0449 z m -396,8.16602 -5.9688,2.2793 -5.9707,2.27929 -1.3164,1.32227 c -10.6256,6.72381 -17.6858,18.57369 -17.6855,32.07812 -4e-4,20.95464 16.9868,37.94188 37.9414,37.94141 20.9539,-6.1e-4 37.9398,-16.98754 37.9394,-37.94141 3e-4,-15.14132 -8.8725,-28.20671 -21.6992,-34.29297 l -0.7187,-0.49414 -4.2618,-1.56836 -4.2597,-1.56836 -7,-0.0176 z" /><path
         id="path4934-6"
         style="fill:url(#radialGradient6179-5);fill-opacity:1"
         d="m -1389.1859,-578.37696 c -20.9546,-4.7e-4 -37.942,16.98676 -37.9415,37.9414 -4e-4,20.95464 16.9869,37.94188 37.9415,37.94141 20.9538,-6.1e-4 37.9399,-16.98754 37.9394,-37.94141 10e-5,-3.41409 -0.4572,-6.72003 -1.3027,-9.86718 v -0.36524 l -0.2285,-0.43555 c -4.6101,-15.75805 -19.16,-27.27293 -36.4082,-27.27343 z m 96.1406,61.80859 -0.877,0.95117 -0.875,0.94922 -4.2734,13 -4.2735,13 -1.0273,0.66797 -1.0254,0.66602 -16.0742,3.05859 -16.0742,3.05859 -10.5,1.27344 -10.5,1.27539 h -31.5 -31.5 l -11,-1.31641 -11,-1.3164 -17,-2.91602 -17,-2.91601 -2.25,-0.63477 -2.2481,-0.63281 2.6016,6.86523 2.6035,6.86719 6.4961,18 6.4961,18 6.457,18.5 6.4551,18.5 9.0156,28 9.0176,28 8.3242,29 8.3242,29 5.5645,22 5.5625,22 4.498,20.5 4.5,20.5 3.0196,16.5 3.0195,16.5 2.0723,14 2.0742,14 1.9434,18.5 1.9433,18.5 0.6699,20.974609 0.6719,20.974609 2.3242,-9.246094 2.3262,-9.24414 3.6406,-9.720704 3.6407,-9.71875 4.7246,-10.0957 4.7265,-10.09375 6.2852,-10.91602 6.2832,-10.91406 8.0039,-12 8.0039,-12 7.0098,-9.5 7.0097,-9.5 8.586,-10.5 8.5839,-10.5 12.0098,-13.5 12.0078,-13.5 15,-15.36914 15.002,-15.36914 17.5,-16.27344 17.5,-16.27343 16.4277,-14.13282 16.4297,-14.13281 14.7012,-11.72461 14.7011,-11.72461 -8.6914,-1.18164 -8.6933,-1.17969 -8.1856,-2.08984 -8.1855,-2.08984 -7.252,-2.58985 -7.2519,-2.59179 -8.916,-4.57422 -8.9141,-4.57618 -8.0859,-5.93945 -8.084,-5.93945 -10.0528,-10.16211 -10.0507,-10.16406 -7.3418,-10.96094 -7.3399,-10.96094 -5.3867,-10.95508 -5.3848,-10.95507 0.5606,-1.4629 0.5625,-1.46289 9.0898,-15.58203 9.0918,-15.58203 11.3438,-17.25 11.3437,-17.25 h -0.4902 -0.4902 l -8.0664,4.05469 -8.0665,4.05664 -10.6601,4.32226 -10.6621,4.32032 -8.3145,2.72656 -8.3125,2.72656 -0.6152,-0.61523 -0.6152,-0.61719 -1.2696,-7.73633 -1.2676,-7.73828 -0.053,-3.94922 z m -253.2481,8.39844 8.4746,9.25195 8.4766,9.25 8.4238,10.5 8.4239,10.5 4.9746,7.21875 4.9746,7.2168 0.6406,0.0332 0.6406,0.0312 2.2285,-8.25 2.2305,-8.25 1.7988,-9.99805 1.7989,-9.99804 -0.17,-0.11914 -0.1679,-0.11914 -11.5,-3.2461 -11.5,-3.24804 -11,-3.75 -11,-3.74805 -3.875,-1.63867 z m 346.7481,34.58398 -5.4336,1.95899 -5.4336,1.95898 -5.3809,4.9082 -5.3789,4.90821 -2.6133,5.09179 -2.6152,5.0918 -0.418,8.5 -0.4199,8.5 2.0762,5.5 2.0762,5.5 3.0976,3.75391 3.0957,3.75586 4.1797,2.875 4.1777,2.875 4.4942,1.63086 v 0 l 4.4942,1.63281 8,-0.32031 8,-0.31836 6.3261,-3.37305 6.3262,-3.37109 3.418,-3.99414 3.4199,-3.9961 2.2539,-4.57422 2.2559,-4.57617 -0.012,-10 -0.01,-10 -2.6563,-5 -2.6543,-5 -4.3339,-4.19922 -4.334,-4.19922 -5.9473,-2.71484 -5.9453,-2.71289 -7.0547,-0.0449 z m -182.5,411.417969 v 0.5 0.5 h 0.5 0.5 v -0.5 -0.5 h -0.5 z m -3,8 v 0.5 0.5 h 0.5 0.5 v -0.5 -0.5 h -0.5 z m 1,6 v 0.5 0.5 h 0.5 0.5 v -0.5 -0.5 h -0.5 z" /><path
         id="path4930-4"
         style="fill:url(#radialGradient6064-9);fill-opacity:1"
         d="m -1293.0453,-516.56837 -0.9199,0.95117 -0.9219,0.94922 -13.0899,40.8457 -13.0898,40.84766 -6.541,22.15234 -6.541,22.1543 -5.8848,21.5 -5.8867,21.5 -5.4981,22 -5.4961,22 -3.5019,15.5 -3.5,15.5 -2.9981,14.5 -3,14.5 -3.5566,20.5 -3.5586,20.5 -2.5117,18 -2.5117,18 -1.4903,15.51758 -1.4882,15.51758 1.4785,14.48242 1.4804,14.48242 0.6797,20.974609 0.6797,20.974609 2.3242,-9.246094 2.3262,-9.24414 3.6406,-9.720704 3.6407,-9.71875 4.7246,-10.0957 4.7265,-10.09375 6.2852,-10.91602 6.2832,-10.91406 8.0039,-12 8.0039,-12 7.0098,-9.5 7.0097,-9.5 8.586,-10.5 8.5839,-10.5 12.0098,-13.5 12.0078,-13.5 15,-15.36914 15.002,-15.36914 17.5,-16.27344 17.5,-16.27343 16.4277,-14.13282 16.4297,-14.13281 14.7012,-11.72461 14.7011,-11.72461 c -12.1872,-1.34571 -22.2808,-3.61133 -33.7558,-6.54101 -21.7299,-7.6829 -43.6984,-21.896 -58.5879,-36.40625 l -10.084,-10.19532 -7.6094,-11.42968 -7.6074,-11.42774 -6.4492,-13.5 -6.4492,-13.5 -3.1367,-9.43164 -3.1387,-9.43359 -2.3926,-9.56641 -2.3926,-9.56836 -1.5781,-10.11914 -1.5781,-10.11914 v -3.33203 z m -188,31.40039 v 0.5 0.5 h 0.5 0.5 v -0.5 -0.5 h -0.5 z m 2,5 v 0.5 0.5 h 0.5 0.5 v -0.5 -0.5 h -0.5 z m -17,2 v 0.5 0.5 h 0.5 0.5 v -0.5 -0.5 h -0.5 z m 18,1 v 0.5 0.5 h 0.5 0.5 v -0.5 -0.5 h -0.5 z m 286.2031,1.79102 c -20.9546,-4.7e-4 -37.9418,16.98676 -37.9414,37.9414 -4e-4,20.95464 16.9868,37.94188 37.9414,37.94141 20.9539,-6.1e-4 37.94,-16.98754 37.9395,-37.94141 5e-4,-20.95387 -16.9856,-37.94079 -37.9395,-37.9414 z m -305.2031,2.20898 v 0.5 0.5 h 0.5 0.5 v -0.5 -0.5 h -0.5 z m -1,4 v 0.5 0.5 h 0.5 0.5 v -0.5 -0.5 h -0.5 z m 23,0 v 0.5 0.5 h 0.5 0.5 v -0.5 -0.5 h -0.5 z m 1,3 v 0.5 0.5 h 0.5 0.5 v -0.5 -0.5 h -0.5 z m -25,1 v 0.5 0.5 h 0.5 0.5 v -0.5 -0.5 h -0.5 z m -1,4 v 0.5 0.5 h 0.5 0.5 v -0.5 -0.5 h -0.5 z m 28,0 v 0.5 0.5 h 0.5 0.5 v -0.5 -0.5 h -0.5 z m 1,3 v 0.5 0.5 h 0.5 0.5 v -0.5 -0.5 h -0.5 z m 1,3 v 0.5 0.5 h 0.5 0.5 v -0.5 -0.5 h -0.5 z m 3,8 v 0.5 0.5 h 0.5 0.5 v -0.5 -0.5 h -0.5 z m 1,3 v 0.5 0.5 h 0.5 0.5 v -0.5 -0.5 h -0.5 z m 1,3 v 0.5 0.5 h 0.5 0.5 v -0.5 -0.5 h -0.5 z m 3,8 v 0.5 0.5 h 0.5 0.5 v -0.5 -0.5 h -0.5 z m 1,3 v 0.5 0.5 h 0.5 0.5 v -0.5 -0.5 h -0.5 z m 1,3 v 0.5 0.5 h 0.5 0.5 v -0.5 -0.5 h -0.5 z m 1,3 v 0.5 0.5 h 0.5 0.5 v -0.5 -0.5 h -0.5 z m 1,3 v 0.5 0.5 h 0.5 0.5 v -0.5 -0.5 h -0.5 z m 6,17 v 0.5 0.5 h 0.5 0.5 v -0.5 -0.5 h -0.5 z m 1,3 v 0.5 0.5 h 0.5 0.5 v -0.5 -0.5 h -0.5 z m 1,3 v 0.5 0.5 h 0.5 0.5 v -0.5 -0.5 h -0.5 z m 1,3 v 0.5 0.5 h 0.5 0.5 v -0.5 -0.5 h -0.5 z m 1,3 v 0.5 0.5 h 0.5 0.5 v -0.5 -0.5 h -0.5 z m 1,3 v 0.5 0.5 h 0.5 0.5 v -0.5 -0.5 h -0.5 z m 5,16 v 0.5 0.5 h 0.5 0.5 v -0.5 -0.5 h -0.5 z m 1,3 v 0.5 0.5 h 0.5 0.5 v -0.5 -0.5 h -0.5 z m 1,3 v 0.5 0.5 h 0.5 0.5 v -0.5 -0.5 h -0.5 z m 1,3 v 0.5 0.5 h 0.5 0.5 v -0.5 -0.5 h -0.5 z m 1,3 v 0.5 0.5 h 0.5 0.5 v -0.5 -0.5 h -0.5 z m 3,10 v 0.5 0.5 h 0.5 0.5 v -0.5 -0.5 h -0.5 z m 1,3 v 0.5 0.5 h 0.5 0.5 v -0.5 -0.5 h -0.5 z m 3,10 v 0.5 0.5 h 0.5 0.5 v -0.5 -0.5 h -0.5 z m 1,3 v 0.5 0.5 h 0.5 0.5 v -0.5 -0.5 h -0.5 z m 1,4 v 0.5 0.5 h 0.5 0.5 v -0.5 -0.5 h -0.5 z m 1,3 v 0.5 0.5 h 0.5 0.5 v -0.5 -0.5 h -0.5 z m 2,7 v 0.5 0.5 h 0.5 0.5 v -0.5 -0.5 h -0.5 z m 1,3 v 0.5 0.5 h 0.5 0.5 v -0.5 -0.5 h -0.5 z m 1,4 v 0.5 0.5 h 0.5 0.5 v -0.5 -0.5 h -0.5 z m 1,3 v 0.5 0.5 h 0.5 0.5 v -0.5 -0.5 h -0.5 z m 1,4 v 0.5 0.5 h 0.5 0.5 v -0.5 -0.5 h -0.5 z m 1,3 v 0.5 0.5 h 0.5 0.5 v -0.5 -0.5 h -0.5 z m 1,4 v 0.5 0.5 h 0.5 0.5 v -0.5 -0.5 h -0.5 z m 1,4 v 0.5 0.5 h 0.5 0.5 v -0.5 -0.5 h -0.5 z m 1,3 v 0.5 0.5 h 0.5 0.5 v -0.5 -0.5 h -0.5 z m 1,4 v 0.5 0.5 h 0.5 0.5 v -0.5 -0.5 h -0.5 z m 1,4 v 0.5 0.5 h 0.5 0.5 v -0.5 -0.5 h -0.5 z m 2,7 v 0.5 0.5 h 0.5 0.5 v -0.5 -0.5 h -0.5 z m 1,4 v 0.5 0.5 h 0.5 0.5 v -0.5 -0.5 h -0.5 z m 1,4 v 0.5 0.5 h 0.5 0.5 v -0.5 -0.5 h -0.5 z m 1,4 v 0.5 0.5 h 0.5 0.5 v -0.5 -0.5 h -0.5 z m 1,4 v 0.5 0.5 h 0.5 0.5 v -0.5 -0.5 h -0.5 z m 1,4 v 0.5 0.5 h 0.5 0.5 v -0.5 -0.5 h -0.5 z m 1,4 v 0.5 0.5 h 0.5 0.5 v -0.5 -0.5 h -0.5 z m 1,4 v 0.5 0.5 h 0.5 0.5 v -0.5 -0.5 h -0.5 z m 1,4 v 0.5 0.5 h 0.5 0.5 v -0.5 -0.5 h -0.5 z m 1,4 v 0.5 0.5 h 0.5 0.5 v -0.5 -0.5 h -0.5 z m 1,5 v 0.5 0.5 h 0.5 0.5 v -0.5 -0.5 h -0.5 z m 1,4 v 0.5 0.5 h 0.5 0.5 v -0.5 -0.5 h -0.5 z m 1,5 v 0.5 0.5 h 0.5 0.5 v -0.5 -0.5 h -0.5 z m 1,4 v 0.5 0.5 h 0.5 0.5 v -0.5 -0.5 h -0.5 z m 1,5 v 0.5 0.5 h 0.5 0.5 v -0.5 -0.5 h -0.5 z m 1,4 v 0.5 0.5 h 0.5 0.5 v -0.5 -0.5 h -0.5 z m 1,5 v 0.5 0.5 h 0.5 0.5 v -0.5 -0.5 h -0.5 z m 1,5 v 0.5 0.5 h 0.5 0.5 v -0.5 -0.5 h -0.5 z m 1,5 v 0.5 0.5 h 0.5 0.5 v -0.5 -0.5 h -0.5 z m 1,5 v 0.5 0.5 h 0.5 0.5 v -0.5 -0.5 h -0.5 z m 2,11 v 0.5 0.5 h 0.5 0.5 v -0.5 -0.5 h -0.5 z m 1,4.66602 v 1.33398 1.33399 l 0.666,-0.66797 0.666,-0.66602 -0.666,-0.66601 z m 1,6.33398 v 0.5 0.5 h 0.5 0.5 v -0.5 -0.5 h -0.5 z m 1,6 v 0.5 0.5 h 0.5 0.5 v -0.5 -0.5 h -0.5 z m 1,5.66602 v 1.33398 1.33399 l 0.666,-0.66797 0.666,-0.66602 -0.666,-0.66601 z m 1,7 v 1.33398 1.33399 l 0.666,-0.66797 0.666,-0.66602 -0.666,-0.66601 z m 1,8.33398 v 0.5 0.5 h 0.5 0.5 v -0.5 -0.5 h -0.5 z m 5,83.999999 v 0.5 0.5 h 0.5 0.5 v -0.5 -0.5 h -0.5 z m -3,8 v 0.5 0.5 h 0.5 0.5 v -0.5 -0.5 h -0.5 z m 1,6 v 0.5 0.5 h 0.5 0.5 v -0.5 -0.5 h -0.5 z"
         sodipodi:nodetypes="ccccccccccccccccccccccccccccccccccccccccccccccccccccccccccccccccccccccccccccccccccccccccccccccccccccscscsccccccccccccccccccccccccccccccccccccccccccccccccccccccccccccccccccccccccccccccccccccccccccccccccccccccccccccccccccccccccccccccccccccccccccccccccccccccccccccccccccccccccccccccccccccccccccccccccccccccccccccccccccccccccccccccccccccccccccccccccccccccccccccccccccccccccccccccccccccccccccccccccccccccccccccccccccccccccccccccccccccccccccccccccccccccccccccccccccccccccccccccccccccccccccccccccccccccccccccccccccccccccccccccccccccccccccccccccccccccccccccccccccccccccccccccccccccccccccccccccccccccccccccccccccccccccccccccccccccccccccccccccccccccccccccccccccccccccccccccccccccccccccccccccccccccccccccccccccccccccccccccccccccccccccccccccccccccccccccccccccccccccccccccccccccccccccccc" /></g></g></svg>
